<mxfile host="app.diagrams.net" modified="2024-06-20T05:25:04.995Z" agent="Mozilla/5.0 (Windows NT 10.0; Win64; x64) AppleWebKit/537.36 (KHTML, like Gecko) Chrome/124.0.0.0 Safari/537.36" version="24.5.5" etag="1k3G7grUhKahN0XagH5T" type="github">
  <diagram name="Страница — 1" id="PpjEnl6J3toPktkQ2hGL">
    <mxGraphModel>
      <root>
        <mxCell id="0" />
        <mxCell id="1" parent="0" />
      </root>
    </mxGraphModel>
  </diagram>
</mxfile>
